# xmcd CD database file
#
# Track frame offsets:
#	150
#	21847
#	28499
#	42793
#	52507
#	78879
#	90781
#	113939
#	121950
#	130685
#	151036
#	167594
#	183276
#	196550
#	211931
#	219551
#	229464
#	245618
#	259887
#	271803
#	282398
#
# Disc length: 3931 seconds
#
# Revision: 0
# Processed by: cddbd v1.5.2PL0 Copyright (c) Steve Scherf et al.
# Submitted via: CDex 1.51
#
DISCID=110f5915
DTITLE=Helenice da Cruz Machado Bela - Na Luz dos Sons
DYEAR=1900
DGENRE=New Age
TTITLE0=Prece
TTITLE1=Alegria de Viver
TTITLE2=A força do Amor
TTITLE3=Valsa n. 1
TTITLE4=Devaneio - capricho da imaginação, sonho, fantasia
TTITLE5=Divertimento
TTITLE6=Serenidade
TTITLE7=Jiga - antiga dança italiana
TTITLE8=Alegria e Paz
TTITLE9=Azul Infinito
TTITLE10=O amor de Deus é a fonte da vida
TTITLE11=Valsa n. 2 - tarde de outono
TTITLE12=Crepúsculo
TTITLE13=Serenata
TTITLE14=Cantiga
TTITLE15=Reflexões
TTITLE16=Minha alma tem o peso da saudade - Clarisse Lispector
TTITLE17=Harmonia Cósmica
TTITLE18=Sonho de luz
TTITLE19=Coração solitário
TTITLE20=Vibrações para o planeta Terra
EXTD=
EXTT0=
EXTT1=
EXTT2=
EXTT3=
EXTT4=
EXTT5=
EXTT6=
EXTT7=
EXTT8=
EXTT9=
EXTT10=
EXTT11=
EXTT12=
EXTT13=
EXTT14=
EXTT15=
EXTT16=
EXTT17=
EXTT18=
EXTT19=
EXTT20=
PLAYORDER=
